<svg width="30" height="30" viewBox="0 0 30 30" fill="none" xmlns="http://www.w3.org/2000/svg">
<g id="login-2-svgrepo-com 1" clip-path="url(#clip0_3_68)">
<g id="SVGRepo_iconCarrier">
<path id="Vector" d="M2.50122 14.9988H20.0012M20.0012 14.9988L15.6262 11.2488M20.0012 14.9988L15.6262 18.7488" stroke="white" stroke-width="4" stroke-linecap="round" stroke-linejoin="round"/>
<path id="Vector_2" d="M11.2524 8.75C11.2676 6.03121 11.3881 4.55883 12.3486 3.59835C13.447 2.5 15.2148 2.5 18.7503 2.5H20.0003C23.5358 2.5 25.3036 2.5 26.4019 3.59835C27.5003 4.6967 27.5003 6.46446 27.5003 10V20C27.5003 23.5355 27.5003 25.3033 26.4019 26.4016C25.3036 27.5 23.5358 27.5 20.0003 27.5H18.7503C15.2148 27.5 13.447 27.5 12.3486 26.4016C11.3881 25.4411 11.2676 23.9688 11.2524 21.25" stroke="white" stroke-width="4" stroke-linecap="round"/>
</g>
</g>
<defs>
<clipPath id="clip0_3_68">
<rect width="30" height="30" fill="white"/>
</clipPath>
</defs>
</svg>
